<svg width="300px" height="50px" xmlns="http://www.w3.org/2000/svg" viewBox="-61.66501464843748 13.9893798828125 623.330029296875 122.021240234375" style="background: rgba(0, 0, 0, 0);" preserveAspectRatio="xMidYMid"><defs><filter id="editing-hole" x="-100%" y="-100%" width="300%" height="300%"><feFlood flood-color="#000" result="black"></feFlood><feMorphology operator="dilate" radius="2" in="SourceGraphic" result="erode"></feMorphology><feGaussianBlur in="erode" stdDeviation="4" result="blur"></feGaussianBlur><feOffset in="blur" dx="2" dy="2" result="offset"></feOffset><feComposite operator="atop" in="offset" in2="black" result="merge"></feComposite><feComposite operator="in" in="merge" in2="SourceGraphic" result="inner-shadow"></feComposite></filter></defs><g filter="url(#editing-hole)"><g transform="translate(28.291245102882385, 98.9921875)"><path d="M34.50-13.25L34.50-13.25L34.50-13.25Q36.16-12.03 36.16-9.44L36.16-9.44L36.16-9.44Q36.16-6.85 35.04-5.02L35.04-5.02L35.04-5.02Q33.92-3.20 31.74-1.79L31.74-1.79L31.74-1.79Q27.07 1.22 18.91 1.22L18.91 1.22L18.91 1.22Q10.75 1.22 6.30-3.04L6.30-3.04L6.30-3.04Q1.86-7.30 1.86-14.85L1.86-14.85L1.86-14.85Q1.86-25.54 7.42-33.66L7.42-33.66L7.42-33.66Q11.65-39.68 19.20-42.24L19.20-42.24L19.20-42.24Q23.10-43.52 26.94-43.52L26.94-43.52L26.94-43.52Q30.78-43.52 33.15-43.01L33.15-43.01L33.15-43.01Q35.52-42.50 37.31-41.47L37.31-41.47L37.31-41.47Q41.22-39.23 41.22-35.65L41.22-35.65L41.22-35.65Q41.22-32.38 38.14-29.95L38.14-29.95L38.14-29.95Q35.33-27.78 33.02-27.78L33.02-27.78L33.02-27.78Q30.72-27.78 29.76-28.10L29.76-28.10L29.76-28.10Q30.02-30.40 30.02-31.90L30.02-31.90L30.02-31.90Q30.02-33.41 29.95-34.50L29.95-34.50L29.95-34.50Q29.89-35.58 29.57-36.61L29.57-36.61L29.57-36.61Q28.93-38.98 26.98-38.98L26.98-38.98L26.98-38.98Q25.02-38.98 23.07-37.15L23.07-37.15L23.07-37.15Q21.12-35.33 19.46-32.26L19.46-32.26L19.46-32.26Q15.68-25.28 15.68-17.02L15.68-17.02L15.68-17.02Q15.68-13.06 17.92-10.78L17.92-10.78L17.92-10.78Q20.16-8.51 24.96-8.51L24.96-8.51L24.96-8.51Q28.54-8.51 31.94-10.88L31.94-10.88L31.94-10.88Q33.41-11.90 34.50-13.25ZM56.83-3.52L56.83-3.52L56.83-3.52Q54.85 1.28 48.51 1.28L48.51 1.28L48.51 1.28Q45.25 1.28 43.20-0.96L43.20-0.96L43.20-0.96Q41.47-2.94 41.47-4.93L41.47-4.93L41.47-4.93Q41.47-10.11 43.84-20.22L43.84-20.22L46.21-32.64L59.20-33.92L55.30-13.70L55.30-13.70Q54.21-8.96 54.21-7.30L54.21-7.30L54.21-7.30Q54.21-3.65 56.83-3.52ZM47.36-41.54L47.36-41.54L47.36-41.54Q47.36-44.03 49.44-45.38L49.44-45.38L49.44-45.38Q51.52-46.72 54.53-46.72L54.53-46.72L54.53-46.72Q57.54-46.72 59.36-45.38L59.36-45.38L59.36-45.38Q61.18-44.03 61.18-41.54L61.18-41.54L61.18-41.54Q61.18-39.04 59.17-37.76L59.17-37.76L59.17-37.76Q57.15-36.48 54.14-36.48L54.14-36.48L54.14-36.48Q51.14-36.48 49.25-37.76L49.25-37.76L49.25-37.76Q47.36-39.04 47.36-41.54ZM63.30-6.40L63.30-6.40L63.30-6.40Q63.30-8.13 64.19-12.48L64.19-12.48L67.58-29.76L63.81-29.76L64.06-31.68L64.06-31.68Q71.74-33.98 79.17-39.62L79.17-39.62L82.24-39.62L80.70-32.64L85.70-32.64L85.12-29.76L80.19-29.76L76.93-12.48L76.93-12.48Q76.10-8.51 76.10-7.17L76.10-7.17L76.10-7.17Q76.10-4.10 78.78-3.46L78.78-3.46L78.78-3.46Q78.14-1.28 75.84 0L75.84 0L75.84 0Q73.54 1.28 70.27 1.28L70.27 1.28L70.27 1.28Q67.01 1.28 65.15-0.77L65.15-0.77L65.15-0.77Q63.30-2.82 63.30-6.40ZM100.74-3.52L100.74-3.52L100.74-3.52Q98.75 1.28 92.42 1.28L92.42 1.28L92.42 1.28Q89.15 1.28 87.10-0.96L87.10-0.96L87.10-0.96Q85.38-2.94 85.38-4.93L85.38-4.93L85.38-4.93Q85.38-10.11 87.74-20.22L87.74-20.22L90.11-32.64L103.10-33.92L99.20-13.70L99.20-13.70Q98.11-8.96 98.11-7.30L98.11-7.30L98.11-7.30Q98.11-3.65 100.74-3.52ZM91.26-41.54L91.26-41.54L91.26-41.54Q91.26-44.03 93.34-45.38L93.34-45.38L93.34-45.38Q95.42-46.72 98.43-46.72L98.43-46.72L98.43-46.72Q101.44-46.72 103.26-45.38L103.26-45.38L103.26-45.38Q105.09-44.03 105.09-41.54L105.09-41.54L105.09-41.54Q105.09-39.04 103.07-37.76L103.07-37.76L103.07-37.76Q101.06-36.48 98.05-36.48L98.05-36.48L98.05-36.48Q95.04-36.48 93.15-37.76L93.15-37.76L93.15-37.76Q91.26-39.04 91.26-41.54ZM118.50 0.64L118.50 0.64L118.50 0.64Q115.46 0 113.89-0.29L113.89-0.29L113.89-0.29Q112.32-0.58 110.50-0.58L110.50-0.58L110.50-0.58Q108.67-0.58 106.88 0.06L106.88 0.06L106.88 0.06Q105.92-0.51 105.31-1.66L105.31-1.66L105.31-1.66Q104.70-2.82 104.70-4.61L104.70-4.61L104.70-4.61Q104.70-8.38 108.54-11.26L108.54-11.26L124.80-22.98L124.80-22.98Q120.26-24.26 116.13-24.26L116.13-24.26L116.13-24.26Q112-24.26 110.53-21.44L110.53-21.44L110.53-21.44Q108.35-24 108.35-28.03L108.35-28.03L108.35-28.03Q108.35-30.72 110.30-32.48L110.30-32.48L110.30-32.48Q112.26-34.24 116.35-34.24L116.35-34.24L116.35-34.24Q118.66-34.24 120.74-33.95L120.74-33.95L120.74-33.95Q122.82-33.66 124.67-33.41L124.67-33.41L128.13-32.90L128.13-32.90Q129.79-32.64 131.49-32.64L131.49-32.64L131.49-32.64Q133.18-32.64 134.46-33.34L134.46-33.34L134.46-33.34Q136.13-31.81 136.13-29.70L136.13-29.70L136.13-29.70Q136.13-26.37 132.03-22.91L132.03-22.91L115.84-10.82L115.84-10.82Q120.83-9.34 123.39-9.34L123.39-9.34L123.39-9.34Q128.77-9.34 131.07-11.90L131.07-11.90L131.07-11.90Q132.86-9.86 132.86-6.30L132.86-6.30L132.86-6.30Q132.86-2.75 130.56-0.74L130.56-0.74L130.56-0.74Q128.26 1.28 124.10 1.28L124.10 1.28L124.10 1.28Q121.54 1.28 118.50 0.64ZM164.35-10.82L164.35-10.82L164.35-10.82Q165.95-9.73 165.95-7.33L165.95-7.33L165.95-7.33Q165.95-4.93 164.74-3.39L164.74-3.39L164.74-3.39Q163.52-1.86 161.54-0.83L161.54-0.83L161.54-0.83Q157.44 1.28 153.02 1.28L153.02 1.28L153.02 1.28Q148.61 1.28 146.02 0.32L146.02 0.32L146.02 0.32Q143.42-0.64 141.70-2.43L141.70-2.43L141.70-2.43Q138.30-5.82 138.30-12.03L138.30-12.03L138.30-12.03Q138.30-21.70 143.55-27.58L143.55-27.58L143.55-27.58Q149.18-33.92 158.98-33.92L158.98-33.92L158.98-33.92Q165.06-33.92 168.06-31.36L168.06-31.36L168.06-31.36Q170.30-29.44 170.30-26.30L170.30-26.30L170.30-26.30Q170.30-15.04 150.85-15.04L150.85-15.04L150.85-15.04Q150.59-13.38 150.59-11.97L150.59-11.97L150.59-11.97Q150.59-9.02 151.90-7.90L151.90-7.90L151.90-7.90Q153.22-6.78 155.65-6.78L155.65-6.78L155.65-6.78Q158.08-6.78 160.67-7.90L160.67-7.90L160.67-7.90Q163.26-9.02 164.35-10.82ZM151.30-17.79L151.30-17.79L151.30-17.79Q155.84-17.79 158.46-20.61L158.46-20.61L158.46-20.61Q161.09-23.30 161.09-27.58L161.09-27.58L161.09-27.58Q161.09-29.06 160.54-29.86L160.54-29.86L160.54-29.86Q160-30.66 158.91-30.66L158.91-30.66L158.91-30.66Q157.82-30.66 156.90-30.24L156.90-30.24L156.90-30.24Q155.97-29.82 155.01-28.42L155.01-28.42L155.01-28.42Q152.64-25.22 151.30-17.79ZM199.55 1.28L199.55 1.28L199.55 1.28Q191.81 1.28 191.81-4.74L191.81-4.74L191.81-4.74Q191.87-6.40 192.38-9.22L192.38-9.22L193.54-15.10L193.54-15.10Q195.26-23.42 195.26-25.28L195.26-25.28L195.26-25.28Q195.26-28.99 193.09-28.99L193.09-28.99L193.09-28.99Q189.44-28.99 187.52-19.46L187.52-19.46L183.74 0L170.88 1.28L177.54-32.70L188.03-33.92L187.01-27.65L187.01-27.65Q190.02-33.92 199.23-33.92L199.23-33.92L199.23-33.92Q203.71-33.92 205.60-32.03L205.60-32.03L205.60-32.03Q207.49-30.14 207.49-25.92L207.49-25.92L207.49-25.92Q207.49-21.95 205.44-12.67L205.44-12.67L205.44-12.67Q204.48-8.51 204.48-6.94L204.48-6.94L204.48-6.94Q204.48-5.38 205.34-4.48L205.34-4.48L205.34-4.48Q206.21-3.58 207.49-3.46L207.49-3.46L207.49-3.46Q206.85-1.28 204.64 0L204.64 0L204.64 0Q202.43 1.28 199.55 1.28ZM231.23 0L223.87 0L235.46-42.24L248.83-42.24L251.78-18.11L263.68-42.24L274.88-42.24L276.03-10.62L276.03-10.62Q276.29-4.35 279.36-2.43L279.36-2.43L279.36-2.43Q278.66-1.15 276.61 0.06L276.61 0.06L276.61 0.06Q274.56 1.28 271.84 1.28L271.84 1.28L271.84 1.28Q269.12 1.28 267.52 0.51L267.52 0.51L267.52 0.51Q265.92-0.26 265.02-1.54L265.02-1.54L265.02-1.54Q263.42-3.84 263.42-8.26L263.42-8.26L263.42-28.03L250.82 0L242.88 0L238.40-28.74L231.23 0ZM284.90-1.92L284.90-1.92L284.90-1.92Q283.39-3.58 282.72-6.21L282.72-6.21L282.72-6.21Q282.05-8.83 282.05-13.12L282.05-13.12L282.05-13.12Q282.05-17.41 283.52-21.31L283.52-21.31L283.52-21.31Q284.99-25.22 287.68-28.03L287.68-28.03L287.68-28.03Q293.18-33.92 302.27-33.92L302.27-33.92L302.27-33.92Q305.54-33.92 307.90-32.83L307.90-32.83L318.85-33.92L314.11-8.96L314.11-8.96Q313.92-8.19 313.92-6.78L313.92-6.78L313.92-6.78Q313.92-5.38 314.78-4.48L314.78-4.48L314.78-4.48Q315.65-3.58 316.93-3.46L316.93-3.46L316.93-3.46Q316.29-1.28 313.95 0L313.95 0L313.95 0Q311.62 1.28 308.99 1.28L308.99 1.28L308.99 1.28Q306.37 1.28 304.61 0.29L304.61 0.29L304.61 0.29Q302.85-0.70 302.34-2.37L302.34-2.37L302.34-2.37Q301.31-0.77 299.14 0.26L299.14 0.26L299.14 0.26Q296.96 1.28 294.05 1.28L294.05 1.28L294.05 1.28Q291.14 1.28 288.77 0.51L288.77 0.51L288.77 0.51Q286.40-0.26 284.90-1.92ZM298.40-27.90L298.40-27.90L298.40-27.90Q297.66-26.75 297.02-24.80L297.02-24.80L297.02-24.80Q296.38-22.85 295.33-17.63L295.33-17.63L295.33-17.63Q294.27-12.42 294.27-8.70L294.27-8.70L294.27-8.70Q294.27-4.99 294.85-3.90L294.85-3.90L294.85-3.90Q295.42-2.82 296.45-2.82L296.45-2.82L296.45-2.82Q298.50-2.82 300-4.77L300-4.77L300-4.77Q301.50-6.72 302.08-10.18L302.08-10.18L305.47-28.93L305.47-28.93Q304.13-30.08 302.56-30.08L302.56-30.08L302.56-30.08Q300.99-30.08 300.06-29.57L300.06-29.57L300.06-29.57Q299.14-29.06 298.40-27.90ZM341.44-22.46L341.44-22.46L341.44-22.46Q342.34-24.83 342.34-26.88L342.34-26.88L342.34-26.88Q342.34-30.66 339.26-30.66L339.26-30.66L339.26-30.66Q337.66-30.66 336.35-29.22L336.35-29.22L336.35-29.22Q335.04-27.78 335.04-25.98L335.04-25.98L335.04-25.98Q335.04-24.70 336.06-23.68L336.06-23.68L336.06-23.68Q337.54-22.27 341.31-19.97L341.31-19.97L341.31-19.97Q345.09-17.66 346.53-15.78L346.53-15.78L346.53-15.78Q347.97-13.89 347.97-11.30L347.97-11.30L347.97-11.30Q347.97-8.70 346.72-6.34L346.72-6.34L346.72-6.34Q345.47-3.97 343.23-2.30L343.23-2.30L343.23-2.30Q338.43 1.28 330.75 1.28L330.75 1.28L330.75 1.28Q326.59 1.28 323.39-0.90L323.39-0.90L323.39-0.90Q320.19-3.01 320.19-5.50L320.19-5.50L320.19-5.50Q320.19-8 322.02-9.47L322.02-9.47L322.02-9.47Q323.84-10.94 326.53-10.94L326.53-10.94L326.53-10.94Q329.22-10.94 330.88-9.92L330.88-9.92L330.88-9.92Q330.05-7.81 330.05-6.40L330.05-6.40L330.05-6.40Q330.05-2.18 333.63-2.18L333.63-2.18L333.63-2.18Q335.17-2.18 336.19-3.14L336.19-3.14L336.19-3.14Q337.22-4.10 337.22-5.76L337.22-5.76L337.22-5.76Q337.22-9.02 331.71-12.48L331.71-12.48L331.71-12.48Q327.23-15.42 326.21-16.58L326.21-16.58L326.21-16.58Q324.48-18.62 324.48-21.18L324.48-21.18L324.48-21.18Q324.48-23.74 325.70-26.18L325.70-26.18L325.70-26.18Q326.91-28.61 329.15-30.34L329.15-30.34L329.15-30.34Q333.82-33.92 341.95-33.92L341.95-33.92L341.95-33.92Q346.11-33.92 348.58-32.26L348.58-32.26L348.58-32.26Q351.04-30.59 351.04-27.78L351.04-27.78L351.04-27.78Q351.04-24.96 349.34-23.36L349.34-23.36L349.34-23.36Q347.65-21.76 344.58-21.76L344.58-21.76L344.58-21.76Q342.46-21.76 341.44-22.46ZM354.43-6.40L354.43-6.40L354.43-6.40Q354.43-8.13 355.33-12.48L355.33-12.48L358.72-29.76L354.94-29.76L355.20-31.68L355.20-31.68Q362.88-33.98 370.30-39.62L370.30-39.62L373.38-39.62L371.84-32.64L376.83-32.64L376.26-29.76L371.33-29.76L368.06-12.48L368.06-12.48Q367.23-8.51 367.23-7.17L367.23-7.17L367.23-7.17Q367.23-4.10 369.92-3.46L369.92-3.46L369.92-3.46Q369.28-1.28 366.98 0L366.98 0L366.98 0Q364.67 1.28 361.41 1.28L361.41 1.28L361.41 1.28Q358.14 1.28 356.29-0.77L356.29-0.77L356.29-0.77Q354.43-2.82 354.43-6.40ZM402.18-10.82L402.18-10.82L402.18-10.82Q403.78-9.73 403.78-7.33L403.78-7.33L403.78-7.33Q403.78-4.93 402.56-3.39L402.56-3.39L402.56-3.39Q401.34-1.86 399.36-0.83L399.36-0.83L399.36-0.83Q395.26 1.28 390.85 1.28L390.85 1.28L390.85 1.28Q386.43 1.28 383.84 0.32L383.84 0.32L383.84 0.32Q381.25-0.64 379.52-2.43L379.52-2.43L379.52-2.43Q376.13-5.82 376.13-12.03L376.13-12.03L376.13-12.03Q376.13-21.70 381.38-27.58L381.38-27.58L381.38-27.58Q387.01-33.92 396.80-33.92L396.80-33.92L396.80-33.92Q402.88-33.92 405.89-31.36L405.89-31.36L405.89-31.36Q408.13-29.44 408.13-26.30L408.13-26.30L408.13-26.30Q408.13-15.04 388.67-15.04L388.67-15.04L388.67-15.04Q388.42-13.38 388.42-11.97L388.42-11.97L388.42-11.97Q388.42-9.02 389.73-7.90L389.73-7.90L389.73-7.90Q391.04-6.78 393.47-6.78L393.47-6.78L393.47-6.78Q395.90-6.78 398.50-7.90L398.50-7.90L398.50-7.90Q401.09-9.02 402.18-10.82ZM389.12-17.79L389.12-17.79L389.12-17.79Q393.66-17.79 396.29-20.61L396.29-20.61L396.29-20.61Q398.91-23.30 398.91-27.58L398.91-27.58L398.91-27.58Q398.91-29.06 398.37-29.86L398.37-29.86L398.37-29.86Q397.82-30.66 396.74-30.66L396.74-30.66L396.74-30.66Q395.65-30.66 394.72-30.24L394.72-30.24L394.72-30.24Q393.79-29.82 392.83-28.42L392.83-28.42L392.83-28.42Q390.46-25.22 389.12-17.79ZM430.34-17.98L430.34-17.98L430.34-17.98Q432.64-22.08 432.64-26.24L432.64-26.24L432.64-26.24Q432.64-28.99 430.66-28.99L430.66-28.99L430.66-28.99Q429.12-28.99 427.52-26.37L427.52-26.37L427.52-26.37Q425.86-23.74 425.34-20.35L425.34-20.35L422.02 0L408.77 1.28L415.30-32.64L425.86-33.92L424.70-27.46L424.70-27.46Q427.84-33.92 434.88-33.92L434.88-33.92L434.88-33.92Q438.59-33.92 440.61-32L440.61-32L440.61-32Q442.62-30.08 442.62-26.14L442.62-26.14L442.62-26.14Q442.62-22.21 440.03-19.71L440.03-19.71L440.03-19.71Q437.44-17.22 433.02-17.22L433.02-17.22L433.02-17.22Q431.10-17.22 430.34-17.98Z" fill="#ccc"></path></g></g><style>text {
  font-size: 64px;
  font-family: Arial Black;
  dominant-baseline: central;
  text-anchor: middle;
}</style></svg>